<svg version="1.1" id="Layer_1" xmlns="http://www.w3.org/2000/svg" xmlns:xlink="http://www.w3.org/1999/xlink" x="0px" y="0px"
	 width="100%" viewBox="0 0 656 656" enable-background="new 0 0 656 656" xml:space="preserve">
<path fill="#516F73" opacity="1.000000" stroke="none" 
	d="
M260.944702,379.014801 
	C269.747009,378.959991 278.553070,379.048798 287.350708,378.817108 
	C300.875031,378.460968 311.856049,367.125183 311.629700,353.497742 
	C311.520844,346.945465 313.605774,341.638245 319.691498,339.362762 
	C332.610992,334.532135 342.485138,327.038208 345.378845,313.130768 
	C348.268097,312.590820 349.337524,314.414429 350.849243,315.266937 
	C352.974915,316.465668 355.107758,318.661133 357.608917,316.750366 
	C360.038452,314.894287 358.840210,312.137207 358.170685,309.794281 
	C356.842865,305.147369 355.599579,300.522491 355.407867,295.637573 
	C354.897858,282.640991 363.526093,274.738922 376.350708,277.134857 
	C382.103668,278.209625 386.427185,277.088776 389.925201,272.354706 
	C393.155914,267.982361 397.316956,264.850861 402.531403,262.939606 
	C406.975006,261.310883 411.835907,252.896011 411.589111,248.345306 
	C411.505188,246.797379 410.559021,246.007599 409.470032,245.185913 
	C403.080383,240.364792 401.617157,233.946854 403.647705,226.529221 
	C404.872681,222.054352 406.567719,217.752716 409.397430,213.462418 
	C411.375519,216.010208 410.261627,218.499619 410.225433,220.756836 
	C410.155945,225.092377 410.918945,229.054367 414.095490,232.223114 
	C418.951416,237.067078 422.041901,236.381714 425.029785,229.326935 
	C425.662354,228.434860 426.008942,228.129517 426.355560,227.824188 
	C430.916260,230.818359 431.561798,237.058273 426.216400,239.927979 
	C416.823578,244.970459 419.196472,252.123856 420.655121,259.555939 
	C421.007019,261.348999 421.353943,263.178558 422.017212,264.868042 
	C423.770935,269.335175 423.204529,272.649658 418.664551,275.345398 
	C415.326782,277.327301 414.617218,280.609619 416.396332,284.501160 
	C419.855652,292.067993 422.991272,299.783630 426.217560,307.455902 
	C429.022675,314.126617 426.393707,318.036041 419.024902,318.282806 
	C417.372375,318.338135 415.534149,318.094238 414.120239,318.735382 
	C412.242981,319.586578 411.150024,321.233063 412.197296,323.640717 
	C415.797119,331.916229 415.759003,331.932800 407.542389,334.070435 
	C410.735657,340.309448 410.734802,340.308502 404.810303,345.592560 
	C403.057556,347.155823 403.199188,349.130341 403.673187,351.137939 
	C404.397552,354.205872 405.451569,357.184784 405.343201,360.432068 
	C405.116821,367.214905 401.675507,370.824158 394.888123,371.323761 
	C389.854767,371.694275 384.952454,370.409302 379.961670,370.298187 
	C371.735016,370.115082 367.874695,372.564972 365.554138,380.455017 
	C362.357666,391.323242 360.756348,402.535278 359.407227,413.763672 
	C358.784332,418.947968 361.152008,423.164734 364.448944,426.883301 
	C371.535797,434.876221 379.656189,441.329346 390.353546,443.833466 
	C391.480591,444.097260 392.600677,444.462616 393.616364,445.909851 
	C388.854279,453.065460 382.656860,458.943451 375.371674,463.698639 
	C372.555420,465.536865 371.586548,462.971832 370.493927,461.174835 
	C364.175751,450.783508 358.034882,440.240570 350.339386,430.803802 
	C330.398102,406.350433 305.597351,389.213257 273.904907,384.846924 
	C260.835999,383.046417 247.986801,386.645538 239.448532,398.593109 
	C238.961456,399.274658 238.541321,400.005615 236.909180,399.899475 
	C238.011734,393.397400 241.595108,388.830750 246.704575,385.109222 
	C250.862610,382.080627 255.946472,381.466339 260.733582,379.229248 
	C260.981049,379.001129 260.944702,379.014801 260.944702,379.014801 
z"/>
<path fill="#516F73" opacity="1.000000" stroke="none" 
	d="
M260.996643,378.990295 
	C257.823242,378.900940 257.416595,377.361084 258.643188,374.733459 
	C259.713593,372.440430 261.562439,370.978882 263.777313,370.244507 
	C271.495514,367.685394 274.254303,361.423950 274.440918,354.367249 
	C274.593689,348.589813 276.883423,345.065735 281.350739,342.061401 
	C286.202301,338.798615 289.126038,334.316467 289.184967,327.584442 
	C285.808044,328.836792 285.056854,331.421875 283.680511,333.327728 
	C275.752502,344.305908 257.656952,345.038757 248.706131,334.670624 
	C244.515594,329.816559 244.131775,324.081696 247.604309,318.179077 
	C248.601151,318.380524 248.919617,319.175781 248.995895,320.007202 
	C249.709183,327.781067 255.184128,331.041626 261.678131,333.055054 
	C267.997772,335.014374 273.263916,333.228851 277.921997,328.359436 
	C281.903442,324.197388 285.614197,319.202789 292.895355,320.505615 
	C294.440247,320.782043 296.834045,318.395416 298.133179,315.225983 
	C292.494415,316.464417 287.662445,318.654633 282.421143,318.865417 
	C276.848145,319.089508 271.418945,318.619843 266.461609,315.947815 
	C258.844116,311.841949 256.916840,299.412323 262.915009,293.847168 
	C263.089203,294.102386 263.406769,294.351532 263.414337,294.609772 
	C263.790710,307.478058 267.904266,311.455322 280.960266,311.846100 
	C290.233002,312.123657 298.700378,309.512085 306.741028,305.154968 
	C309.322845,303.755920 311.897552,302.343689 315.287567,300.494598 
	C314.372192,304.855316 311.718842,306.678558 309.256348,308.361603 
	C300.349060,314.449463 296.136475,323.571838 293.734375,333.427551 
	C292.385071,338.963715 290.233704,343.361664 285.721222,346.670654 
	C283.049316,348.629944 281.102325,351.054596 281.110962,354.542999 
	C281.144012,367.895874 275.161591,376.342194 261.263611,378.833862 
	C260.944702,379.014801 260.981049,379.001129 260.996643,378.990295 
z"/>
<path fill="#516F73" opacity="1.000000" stroke="none" 
	d="
M263.161316,395.235474 
	C257.026764,395.107788 251.653076,396.982574 245.644791,398.111847 
	C246.480484,394.787842 248.874542,393.823730 250.902222,392.687622 
	C263.211548,385.791016 276.168549,386.239563 289.084137,390.193695 
	C319.626709,399.544373 342.397980,418.798676 358.681091,446.005920 
	C360.171204,448.495758 362.400238,450.716949 362.515533,454.524414 
	C349.707855,449.598206 336.343140,446.111389 332.060364,430.855621 
	C330.974182,426.986572 328.865784,424.034729 325.915924,421.425629 
	C311.597534,408.761414 295.916412,398.822052 276.570190,395.792358 
	C272.243652,395.114807 267.950012,395.303040 263.161316,395.235474 
z"/>
<path fill="#516F73" opacity="1.000000" stroke="none" 
	d="
M426.532776,227.552750 
	C426.008942,228.129517 425.662354,228.434860 425.077393,228.993164 
	C417.282867,229.459961 414.782227,227.772049 412.685852,221.042862 
	C410.593170,214.325531 412.233398,209.887695 419.206970,205.215576 
	C414.645233,205.908478 411.650208,207.647659 409.721191,210.512527 
	C405.491638,216.793900 399.556183,220.047485 392.288849,220.823425 
	C385.914124,221.504089 379.480011,221.628815 373.172119,221.993332 
	C372.617340,219.720749 374.139069,219.662628 375.088348,219.244812 
	C380.278381,216.960480 385.683441,215.288803 391.192780,214.002365 
	C400.657593,211.792328 407.071167,205.985107 411.128418,197.364700 
	C413.860138,191.560623 417.438873,187.489136 424.752899,187.844711 
	C432.791626,188.235519 438.302338,191.663269 441.396606,199.061295 
	C443.918854,205.091705 442.208954,210.141098 437.733215,214.446487 
	C433.644012,218.380066 428.832581,221.667557 426.532776,227.552750 
z"/>
<path fill="#516F73" opacity="1.000000" stroke="none" 
	d="
M198.456390,206.420197 
	C191.558807,214.870926 183.975433,222.268677 176.921432,230.774643 
	C177.267548,225.806168 177.049606,220.718887 178.066284,215.891632 
	C181.029755,201.821213 186.384155,189.235001 199.391998,180.972870 
	C206.909760,176.197845 214.085938,170.756866 220.630310,164.641052 
	C221.055878,165.010284 221.510544,165.291351 221.474045,165.389252 
	C218.266098,173.992035 215.483063,182.799377 211.572739,191.073730 
	C209.746994,194.937057 205.697433,197.734024 202.729431,201.079636 
	C201.297607,202.693619 200.036133,204.458710 198.456390,206.420197 
z"/>
<path fill="#516F73" opacity="1.000000" stroke="none" 
	d="
M289.295837,275.074890 
	C293.244629,275.728516 295.652954,278.065033 297.912598,280.525238 
	C302.394470,285.404968 307.434479,288.835663 314.512726,287.779053 
	C315.389801,287.648102 316.549286,287.501129 317.089813,288.686981 
	C313.495850,292.543152 306.816498,293.455902 300.647644,291.004120 
	C296.210083,289.240448 292.916016,285.872345 289.217346,283.055878 
	C285.818634,280.467804 282.342133,277.891785 277.350250,278.461151 
	C290.701324,291.570099 290.500092,297.181458 315.148987,295.053802 
	C310.720093,303.783752 295.201233,308.857056 284.038818,303.691925 
	C277.908875,300.855438 273.274719,296.888580 271.241699,289.973236 
	C268.745300,281.481659 264.692596,279.219452 256.120422,280.244049 
	C252.987366,280.618530 249.794983,281.106445 246.745392,279.839233 
	C243.692429,278.570618 240.952271,276.921814 240.436630,272.646271 
	C246.230988,277.525909 252.854568,274.635376 258.843994,275.582397 
	C269.098816,277.203857 278.878937,273.234985 289.295837,275.074890 
M277.153625,289.359436 
	C281.842590,296.629761 286.028473,299.261078 292.601532,298.005035 
	C283.578308,295.097687 279.931000,287.381104 273.557800,282.618378 
	C274.650482,284.652283 275.743164,286.686157 277.153625,289.359436 
z"/>
<path fill="#516F73" opacity="1.000000" stroke="none" 
	d="
M271.959412,194.964508 
	C260.091461,205.355377 249.413757,216.244720 243.660278,230.976181 
	C242.026016,235.160614 240.807495,239.438812 240.207718,243.940292 
	C238.984879,253.118134 243.119751,259.214661 250.709915,263.645386 
	C253.718262,265.401489 256.630951,267.350159 259.430756,269.422516 
	C260.791656,270.429871 262.553589,271.439026 262.277100,273.680206 
	C244.493652,272.874481 232.530212,259.007294 236.120285,240.352051 
	C239.969009,220.352753 250.827103,204.234940 266.531342,191.917404 
	C279.383942,181.836517 294.399353,175.231277 310.216522,170.789276 
	C315.613220,169.273712 321.011383,169.339813 326.469696,170.810471 
	C330.284912,171.838425 334.224915,172.403259 338.962402,173.344437 
	C335.242676,176.374893 331.552521,176.967545 328.027252,175.514389 
	C319.782471,172.115906 312.063690,174.022934 304.325806,176.981445 
	C292.794067,181.390503 281.394989,186.045990 271.959412,194.964508 
z"/>
<path fill="#516F73" opacity="1.000000" stroke="none" 
	d="
M391.002716,248.999924 
	C393.612366,242.900696 393.897522,235.975479 397.626465,230.280106 
	C398.660187,228.701218 398.964355,226.457428 401.892334,225.775497 
	C400.749695,234.660385 401.607574,243.443222 398.690796,251.857269 
	C394.589722,263.687805 386.054901,269.766724 373.868622,271.280548 
	C371.072174,271.627899 368.243347,272.081818 365.560577,272.911041 
	C355.807220,275.925873 349.667267,284.253754 349.252625,294.553192 
	C349.167908,296.658081 349.806519,298.853516 348.727142,300.913544 
	C344.511444,297.654480 343.050323,289.361359 345.379364,282.208801 
	C349.162842,270.589447 359.627655,262.961182 372.175354,262.675964 
	C383.072968,262.428284 387.911926,259.079468 390.970978,249.337769 
	C391.010895,248.979599 391.002716,248.999924 391.002716,248.999924 
z"/>
<path fill="#516F73" opacity="1.000000" stroke="none" 
	d="
M494.344666,301.731628 
	C482.883087,292.575989 475.265961,280.430634 464.961182,269.490326 
	C489.838257,274.648285 508.693695,285.735748 515.915710,311.328430 
	C514.047363,311.824524 512.634033,310.444916 511.132660,309.692688 
	C507.720245,307.983002 504.447815,306.087555 500.412048,306.073853 
	C497.707611,306.064667 495.796722,304.412720 494.344666,301.731628 
z"/>
<path fill="#516F73" opacity="1.000000" stroke="none" 
	d="
M391.016266,248.967209 
	C386.337921,255.703659 379.653107,255.600616 372.718781,254.080704 
	C370.150085,253.517700 367.560272,252.552597 365.282623,251.244232 
	C354.009338,244.768402 342.909576,246.508865 331.843964,251.657166 
	C329.164459,252.903824 326.605591,254.409790 323.893799,255.848175 
	C322.802734,253.547882 324.499023,252.481842 325.488068,251.407593 
	C335.334137,240.713287 347.678680,234.130478 361.419739,229.951279 
	C364.434021,229.034515 367.460144,230.058487 370.225952,231.004639 
	C377.519257,233.499649 384.526062,233.801590 391.367462,229.739944 
	C391.901276,229.423004 392.616821,229.189209 393.187592,229.838531 
	C388.515656,237.266907 378.999176,239.758545 372.439301,237.776367 
	C364.676025,235.430618 357.358124,236.508194 348.921021,240.709625 
	C358.588135,240.538651 365.746246,244.444977 373.073059,247.921600 
	C377.103821,249.834183 381.308502,250.270737 385.701691,248.955338 
	C387.174103,248.514465 388.749207,247.315552 390.717255,248.770996 
	C391.002716,248.999924 391.010895,248.979599 391.016266,248.967209 
z"/>
<path fill="#516F73" opacity="1.000000" stroke="none" 
	d="
M179.960876,409.935089 
	C178.239685,408.002533 177.575928,406.125000 177.222946,403.861389 
	C175.479568,392.681396 171.805161,381.413757 179.617493,371.464325 
	C189.382965,389.413849 198.787674,407.853058 200.619217,429.329803 
	C193.357605,423.799255 186.731216,417.063751 179.960876,409.935089 
z"/>
<path fill="#516F73" opacity="1.000000" stroke="none" 
	d="
M296.407776,503.388489 
	C299.305328,505.404572 301.970551,507.119080 304.419250,509.101044 
	C306.869446,511.084198 309.008942,513.499512 312.982391,513.178040 
	C311.883362,515.786743 310.023926,515.965515 308.344208,516.160583 
	C293.041779,517.937378 278.950958,515.501648 267.059265,504.703308 
	C263.129639,501.134979 258.523285,498.519196 253.581879,496.289093 
	C246.917145,493.281219 242.799744,487.705139 240.522385,479.145630 
	C247.117783,482.621948 251.939316,486.481354 255.505478,491.507141 
	C257.765106,494.691589 260.324432,496.182434 263.998993,496.724182 
	C271.558228,497.838684 279.031158,499.495514 286.694794,499.951172 
	C290.062164,500.151428 293.073395,501.762085 296.407776,503.388489 
z"/>
<path fill="#516F73" opacity="1.000000" stroke="none" 
	d="
M197.869827,253.017700 
	C198.081711,265.702087 192.764465,275.782410 185.588928,285.238312 
	C183.539230,287.939423 182.161545,291.150513 179.827759,295.272064 
	C177.213120,280.125519 175.163559,266.580322 184.645264,253.889023 
	C188.980469,248.086365 191.832703,241.184326 195.471054,234.846069 
	C196.308441,233.387268 196.735275,231.401581 199.404526,230.794434 
	C197.792084,236.294769 195.833130,241.558136 198.364151,246.892517 
	C199.344315,248.958328 198.836395,250.757156 197.869827,253.017700 
z"/>
<path fill="#516F73" opacity="1.000000" stroke="none" 
	d="
M198.144485,431.661621 
	C207.878952,436.402893 213.833344,444.450470 219.066605,452.992767 
	C222.389496,458.416779 224.856339,464.365295 227.352646,470.313385 
	C207.565002,458.998138 190.150574,445.375031 179.544632,422.965698 
	C185.860092,426.668610 191.814407,429.129730 198.144485,431.661621 
z"/>
<path fill="#516F73" opacity="1.000000" stroke="none" 
	d="
M477.155212,407.374207 
	C483.009460,399.654175 489.529541,393.545349 498.857941,390.839966 
	C502.550476,389.769104 505.869507,387.410187 510.022186,385.300659 
	C509.089233,390.373169 506.676361,394.000244 504.551910,397.563721 
	C500.386993,404.549866 497.684998,412.538330 489.911743,417.103149 
	C483.605377,420.806519 476.283508,420.801636 469.593292,424.053436 
	C473.568726,419.043030 474.397186,412.989166 477.155212,407.374207 
z"/>
<path fill="#516F73" opacity="1.000000" stroke="none" 
	d="
M531.098389,391.984161 
	C527.921509,396.384857 525.301208,400.715637 522.927368,405.439636 
	C515.850586,386.734100 521.938171,368.966309 524.113281,350.889679 
	C527.346436,355.607025 531.410461,359.287354 534.738281,363.560944 
	C539.330872,369.458710 536.080017,375.988373 535.486206,382.182465 
	C535.161072,385.573792 533.332397,388.786987 531.098389,391.984161 
z"/>
<path fill="#516F73" opacity="1.000000" stroke="none" 
	d="
M487.464142,443.479095 
	C488.979431,440.877014 490.295563,438.578247 491.772186,435.999207 
	C496.257141,440.510376 498.572235,433.582062 502.422058,433.892120 
	C503.395355,445.646942 499.626801,455.565033 491.593903,464.003937 
	C486.916046,468.918182 481.571381,473.232269 477.629272,480.393585 
	C475.340210,471.315063 475.094971,463.677185 479.256470,456.422607 
	C481.735931,452.100189 484.583130,447.988708 487.464142,443.479095 
z"/>
<path fill="#516F73" opacity="1.000000" stroke="none" 
	d="
M315.880524,431.085144 
	C330.583313,443.338104 341.496979,458.120453 349.965637,474.763916 
	C350.842957,476.488159 353.814819,478.941864 350.619019,480.627319 
	C348.017883,481.999115 347.248108,478.715912 346.163757,477.041656 
	C335.926086,461.234161 325.689270,445.481140 310.976562,433.217102 
	C293.678070,418.797516 274.016541,411.142792 251.411072,411.312775 
	C250.083847,411.322754 248.753372,411.230530 247.429810,411.120850 
	C247.169037,411.099182 246.933105,410.777832 245.718475,409.878815 
	C273.107758,405.638275 295.425629,414.621216 315.880524,431.085144 
z"/>
<path fill="#516F73" opacity="1.000000" stroke="none" 
	d="
M508.962708,337.823303 
	C512.217834,336.199951 515.080444,334.576874 518.106995,333.965027 
	C519.208252,335.128967 518.783264,335.964539 518.328003,336.572174 
	C513.561401,342.933899 514.065308,350.260651 514.886597,357.430206 
	C515.970947,366.896454 512.166870,374.898468 503.633514,379.053589 
	C500.209137,380.721039 497.247711,383.035492 493.552887,385.877136 
	C496.048920,372.092438 500.007385,359.817047 507.671356,349.011200 
	C505.621582,347.067688 503.945892,349.953247 501.925903,348.260834 
	C503.332184,344.418945 504.995148,340.620941 508.962708,337.823303 
z"/>
<path fill="#516F73" opacity="1.000000" stroke="none" 
	d="
M371.208252,152.420929 
	C381.845947,141.247345 395.144745,137.449203 409.999695,138.074219 
	C414.295044,138.254944 418.577881,138.733719 422.805206,139.070969 
	C422.934387,139.585159 423.167664,140.089905 423.066193,140.169891 
	C413.674561,147.570923 405.329803,156.845291 391.121887,153.669403 
	C384.764862,152.248428 377.925568,152.985153 371.208252,152.420929 
z"/>
<path fill="#516F73" opacity="1.000000" stroke="none" 
	d="
M166.024185,473.528442 
	C177.570053,474.828430 188.914597,475.090363 199.627975,478.917419 
	C204.992340,480.833679 209.153961,484.734955 213.673874,488.327606 
	C199.532791,496.860168 175.449158,490.400543 162.901520,473.636780 
	C163.756546,472.652771 164.717758,473.374939 166.024185,473.528442 
z"/>
<path fill="#516F73" opacity="1.000000" stroke="none" 
	d="
M163.981949,340.365997 
	C165.267807,338.865479 166.293045,338.722687 166.301620,340.659485 
	C166.353180,352.288269 171.225952,363.277435 170.437943,375.103699 
	C170.019547,381.383026 167.031021,386.265289 165.129715,391.778717 
	C155.764587,374.708771 150.256149,357.815796 163.981949,340.365997 
z"/>
<path fill="#516F73" opacity="1.000000" stroke="none" 
	d="
M289.338593,158.469543 
	C282.583771,160.676941 276.202881,162.757187 269.821960,164.837433 
	C273.526337,158.559570 276.504517,152.890671 282.912170,148.261993 
	C292.858978,141.076706 304.293640,141.347198 314.743744,137.114487 
	C308.148438,146.388153 302.091187,156.086304 289.338593,158.469543 
z"/>
<path fill="#516F73" opacity="1.000000" stroke="none" 
	d="
M224.554489,212.481018 
	C231.181183,207.896652 238.136200,204.480301 244.388824,198.669388 
	C240.168671,222.950287 233.133072,231.520370 209.792831,232.545792 
	C215.352829,226.004105 218.073135,218.164291 224.554489,212.481018 
z"/>
<path fill="#516F73" opacity="1.000000" stroke="none" 
	d="
M165.677887,447.203278 
	C172.487564,450.477448 175.307693,457.421509 182.046326,461.223541 
	C163.558609,465.670258 145.675415,457.123260 140.871552,442.116119 
	C149.270813,443.115326 157.920532,441.822266 165.677887,447.203278 
z"/>
<path fill="#516F73" opacity="1.000000" stroke="none" 
	d="
M138.102219,281.485931 
	C138.173920,288.035431 138.173920,294.137268 138.173920,300.592468 
	C123.741425,294.843384 119.310158,270.872040 129.309448,253.011078 
	C131.261032,263.253143 136.695618,271.437744 138.102219,281.485931 
z"/>
<path fill="#516F73" opacity="1.000000" stroke="none" 
	d="
M288.936188,135.846619 
	C301.656494,118.342407 311.260803,119.040215 330.780853,114.324554 
	C325.424133,121.789589 321.521484,129.033600 312.123108,131.725815 
	C303.432129,134.215393 294.441956,136.144516 286.008087,141.052017 
	C285.812317,138.224716 287.716248,137.420319 288.936188,135.846619 
z"/>
<path fill="#516F73" opacity="1.000000" stroke="none" 
	d="
M148.800201,322.389893 
	C148.759811,318.463745 148.634964,314.964966 148.747910,311.473846 
	C148.896362,306.884857 150.353195,302.899170 153.283813,299.118622 
	C158.036331,292.987762 163.230453,286.944519 164.304230,278.745575 
	C164.376358,278.194763 164.977554,277.713257 165.421631,277.070831 
	C169.848434,287.209106 166.680664,305.575592 159.142868,312.789490 
	C155.335983,316.432800 153.353790,321.196350 150.813080,325.434814 
	C148.707657,325.267731 149.066299,323.854065 148.800201,322.389893 
z"/>
<path fill="#516F73" opacity="1.000000" stroke="none" 
	d="
M475.703278,225.056366 
	C487.252563,225.868118 491.879150,233.871857 496.230865,242.669052 
	C479.959290,243.617279 463.825836,234.156235 456.898041,223.191528 
	C463.175171,224.238815 469.361908,222.917694 475.703278,225.056366 
z"/>
<path fill="#516F73" opacity="1.000000" stroke="none" 
	d="
M356.075745,192.103607 
	C364.195801,190.931686 370.014496,186.232224 376.511230,180.774826 
	C376.203247,185.823090 373.263916,187.881561 370.648712,189.903137 
	C365.797180,193.653427 360.056030,195.483612 354.064575,196.350082 
	C345.559692,197.580063 339.457977,202.286209 334.530457,209.009552 
	C330.171478,214.957123 328.879639,220.934708 333.442963,227.393829 
	C336.337891,231.491409 336.740021,235.574921 333.139679,239.312714 
	C331.974823,239.527954 331.481262,238.908188 331.342896,238.341003 
	C329.690887,231.568527 327.841949,224.866592 325.286011,218.361404 
	C324.449890,216.233459 325.319244,214.060501 326.181641,212.069427 
	C331.135925,200.631500 339.177216,193.301239 352.207336,192.659821 
	C353.364899,192.602829 354.512939,192.352478 356.075745,192.103607 
z"/>
<path fill="#516F73" opacity="1.000000" stroke="none" 
	d="
M130.643127,324.203827 
	C122.171860,316.725098 116.968651,307.698425 114.392982,297.092896 
	C114.003998,295.491211 113.320816,293.932068 114.424942,291.567261 
	C119.100105,299.651459 130.125443,298.155609 134.600769,306.960327 
	C138.228241,314.096924 139.100891,318.097748 134.683685,323.766968 
	C133.553802,325.217163 132.564423,326.537445 130.643127,324.203827 
z"/>
<path fill="#516F73" opacity="1.000000" stroke="none" 
	d="
M391.913605,529.213013 
	C387.822571,529.945801 384.138733,530.630432 379.540527,531.484985 
	C385.802521,513.300232 402.745758,511.719482 416.077179,505.062256 
	C409.783691,514.735657 405.436981,526.267456 391.913605,529.213013 
z"/>
<path fill="#516F73" opacity="1.000000" stroke="none" 
	d="
M451.018890,337.046509 
	C459.749939,339.974670 466.356934,344.863434 470.365448,352.981018 
	C471.880096,356.048309 474.854004,357.710297 477.871948,359.353027 
	C472.531128,363.253265 460.884705,361.566956 457.337494,356.721283 
	C454.601593,352.983887 451.813324,349.282410 448.959808,345.634186 
	C446.381226,342.337524 446.570068,338.340942 445.169586,334.510956 
	C447.972961,334.389679 449.024811,336.271271 451.018890,337.046509 
z"/>
<path fill="#516F73" opacity="1.000000" stroke="none" 
	d="
M418.054535,518.194580 
	C420.984894,509.604370 425.847656,503.334625 434.015686,499.593414 
	C437.841095,497.841248 441.128113,494.913544 444.798615,492.424011 
	C445.810272,504.039520 433.165802,518.824097 416.121582,526.167847 
	C415.545166,523.281433 417.439789,521.062927 418.054535,518.194580 
z"/>
<path fill="#516F73" opacity="1.000000" stroke="none" 
	d="
M267.448975,429.242737 
	C296.964996,434.353912 326.463348,458.609680 334.658600,478.680145 
	C332.026093,478.814484 331.420013,476.608307 330.283813,475.225403 
	C312.818359,453.967224 292.035583,437.707733 264.450134,431.895264 
	C255.990082,430.112640 247.410706,429.016113 238.710632,430.138275 
	C237.598114,430.281738 236.376785,430.564178 234.624084,428.807312 
	C245.914291,426.560669 256.472565,427.617798 267.448975,429.242737 
z"/>
<path fill="#516F73" opacity="1.000000" stroke="none" 
	d="
M184.436951,166.560699 
	C185.633118,165.463211 186.082230,164.031570 188.435837,163.520279 
	C185.631775,177.646957 187.578018,192.998322 173.126297,202.163925 
	C168.973495,193.770218 170.481430,181.472260 176.603333,174.751892 
	C179.071274,172.042679 181.669937,169.452576 184.436951,166.560699 
z"/>
<path fill="#516F73" opacity="1.000000" stroke="none" 
	d="
M461.002472,462.012787 
	C459.601471,463.687683 458.293640,465.013794 457.325592,466.553528 
	C450.196564,477.892792 439.380371,478.191742 427.744659,476.798370 
	C431.148499,469.211090 454.603180,456.562592 467.316040,455.426178 
	C466.281952,458.697845 463.072968,459.608093 461.002472,462.012787 
z"/>
<path fill="#516F73" opacity="1.000000" stroke="none" 
	d="
M459.922058,317.141724 
	C463.181030,320.648376 465.178894,324.397339 465.753265,328.831848 
	C466.253906,332.697327 466.528625,336.600983 468.475616,340.879791 
	C454.858673,332.779114 444.145386,323.780182 446.124969,306.078796 
	C450.901062,309.323853 455.604431,312.662476 459.922058,317.141724 
z"/>
<path fill="#516F73" opacity="1.000000" stroke="none" 
	d="
M316.798767,338.343628 
	C310.972839,341.593994 308.691620,346.104034 309.490082,352.560730 
	C310.556915,361.187500 305.753235,367.139648 299.276489,371.768707 
	C295.027618,374.805511 290.300293,377.214325 284.050293,377.184937 
	C285.961853,372.512817 287.671143,368.964111 292.380554,367.361145 
	C301.020416,364.420441 303.408356,360.214386 302.830872,350.922516 
	C302.490173,345.440430 304.694397,340.695282 308.641174,337.139801 
	C311.258057,334.782379 314.554962,334.536102 316.798767,338.343628 
z"/>
<path fill="#516F73" opacity="1.000000" stroke="none" 
	d="
M450.139282,506.576172 
	C450.736908,497.066620 451.810242,487.716187 459.461731,480.827606 
	C463.001068,477.641144 466.507721,474.418335 471.245697,470.104340 
	C467.028015,477.701721 470.079285,485.428711 466.504364,492.181915 
	C462.918945,498.954865 456.488251,502.594116 450.139282,506.576172 
z"/>
<path fill="#516F73" opacity="1.000000" stroke="none" 
	d="
M150.010345,199.435913 
	C152.523483,194.734451 154.866821,190.394806 157.210159,186.055161 
	C157.618927,186.039688 158.027695,186.024216 158.436462,186.008743 
	C159.399551,192.324280 160.684204,198.611511 161.243469,204.962631 
	C161.926315,212.716919 157.980881,218.651474 152.474762,223.846542 
	C148.053513,216.178207 146.884964,208.222366 150.010345,199.435913 
z"/>
<path fill="#516F73" opacity="1.000000" stroke="none" 
	d="
M454.662384,287.297241 
	C450.795532,282.859894 447.171814,278.669159 445.236664,273.148529 
	C450.309998,275.987610 455.886688,276.720276 461.212555,278.234741 
	C469.183838,280.501465 472.692108,287.064301 476.799957,293.487183 
	C467.894196,296.147705 460.722992,294.302094 454.662384,287.297241 
z"/>
<path fill="#516F73" opacity="1.000000" stroke="none" 
	d="
M267.889709,144.792480 
	C263.211456,151.595001 259.505737,158.686478 254.395279,164.891922 
	C252.277390,167.463623 250.125732,168.834137 246.919022,168.995850 
	C243.663269,169.160065 240.337753,168.798279 236.349991,171.115707 
	C239.958298,162.655518 243.767334,156.002411 251.185150,152.399460 
	C256.129639,149.997849 261.143555,147.798004 265.472412,144.315460 
	C266.181671,143.744873 267.336395,142.399063 267.889709,144.792480 
z"/>
<path fill="#516F73" opacity="1.000000" stroke="none" 
	d="
M465.082031,206.949188 
	C466.558167,210.671875 469.639465,212.918854 471.471252,216.235657 
	C454.833038,216.261612 448.236786,207.436783 442.776794,189.660828 
	C451.686768,194.037460 460.660217,197.127975 465.082031,206.949188 
z"/>
<path fill="#516F73" opacity="1.000000" stroke="none" 
	d="
M300.891479,264.584656 
	C300.314392,266.187927 299.095306,266.139130 297.948853,266.317566 
	C293.595245,266.995148 289.356293,267.342834 285.182190,269.639130 
	C281.244446,271.805359 276.389557,270.427643 272.152618,268.650848 
	C263.863220,265.174713 258.999451,251.717896 263.728455,243.527802 
	C265.089233,257.148743 273.119049,263.787445 285.986877,266.686493 
	C282.707397,261.954315 278.060028,258.955750 277.106110,253.268234 
	C284.213074,258.894531 292.018188,262.766846 300.891479,264.584656 
z"/>
<path fill="#516F73" opacity="1.000000" stroke="none" 
	d="
M323.284790,266.372925 
	C332.002411,268.609558 340.383362,270.173981 349.314575,269.837189 
	C346.564240,274.947693 340.965302,278.070862 335.635620,275.847687 
	C323.179077,270.651764 310.841339,271.018341 298.145416,274.072571 
	C296.085419,274.568146 293.635620,274.825867 291.544312,272.638580 
	C301.981110,270.310913 311.489380,264.044922 323.284790,266.372925 
z"/>
<path fill="#516F73" opacity="1.000000" stroke="none" 
	d="
M330.829834,324.011475 
	C325.906281,326.959198 324.078827,326.243622 323.412842,321.461823 
	C321.970276,311.104523 327.659607,300.798492 337.524506,296.167725 
	C340.276184,298.756500 342.148468,301.926422 343.573883,305.927795 
	C334.115173,306.382599 329.181854,311.453217 327.528229,321.565247 
	C330.676849,316.487305 333.910248,313.246582 339.588898,311.647034 
	C337.651489,317.031677 334.256470,320.317200 330.829834,324.011475 
z"/>
<path fill="#516F73" opacity="1.000000" stroke="none" 
	d="
M248.156738,344.821045 
	C246.498901,342.542419 245.072067,340.713104 242.926208,339.211365 
	C236.307373,334.579407 234.681931,323.384369 239.308380,316.788025 
	C241.367264,313.852478 243.605820,312.911438 247.833069,313.234985 
	C248.352600,315.213196 246.601151,316.144165 245.782394,317.444427 
	C239.017868,328.187164 244.328873,339.587982 256.732849,341.143555 
	C260.272919,341.587524 263.728546,342.705078 267.755005,343.636871 
	C259.405365,349.729218 254.622162,349.967407 248.156738,344.821045 
z"/>
<path fill="#516F73" opacity="1.000000" stroke="none" 
	d="
M217.996078,155.932571 
	C217.285049,159.360260 215.148010,161.086609 212.594650,162.521637 
	C209.122589,164.473007 205.671326,166.474243 203.464249,170.336090 
	C200.874939,158.385468 210.025650,144.230972 225.560486,137.298599 
	C221.704224,143.750671 221.431335,150.167969 217.996078,155.932571 
z"/>
<path fill="#516F73" opacity="1.000000" stroke="none" 
	d="
M120.969269,370.106201 
	C130.265915,375.548615 137.431137,382.321106 139.974045,392.882324 
	C124.247604,393.216675 118.108246,381.133728 117.068024,368.203796 
	C118.947342,367.303925 119.541183,369.242401 120.969269,370.106201 
z"/>
<path fill="#516F73" opacity="1.000000" stroke="none" 
	d="
M297.237854,216.329300 
	C300.013763,212.697388 302.390320,209.124069 307.056091,208.098816 
	C307.845947,210.987320 305.681519,212.002335 304.475006,213.375351 
	C299.017120,219.586639 294.788055,226.283401 293.116943,234.640793 
	C291.219818,244.128342 294.896698,251.142914 301.487946,257.272858 
	C302.569122,258.278381 303.989990,258.954926 304.781128,261.217285 
	C300.477173,262.154266 296.990997,260.950806 294.124847,258.091980 
	C289.192535,253.172226 287.689392,246.918930 288.256592,240.210403 
	C288.986450,231.578110 292.109650,223.745056 297.237854,216.329300 
z"/>
<path fill="#516F73" opacity="1.000000" stroke="none" 
	d="
M142.352692,428.869232 
	C137.222504,424.119873 133.090363,419.119263 130.161667,412.031738 
	C144.286865,415.093231 154.577667,421.258423 159.314865,435.555145 
	C154.491959,430.264832 147.329483,433.260101 142.352692,428.869232 
z"/>
<path fill="#516F73" opacity="1.000000" stroke="none" 
	d="
M260.996948,355.348694 
	C262.978271,354.137146 264.602722,353.057281 266.242584,351.967163 
	C267.556488,356.305267 266.549774,358.504333 261.571625,362.189392 
	C264.000916,362.559509 266.328033,360.528290 269.220947,362.197144 
	C265.103790,368.776459 253.112640,363.848541 252.593506,375.413849 
	C249.039307,371.142792 247.911362,367.642487 249.950272,364.000000 
	C251.178497,361.805786 250.865021,360.594543 249.464264,358.795654 
	C247.402664,356.148132 246.092789,353.109344 247.137299,348.845184 
	C251.465118,351.852997 254.271790,357.759491 260.996948,355.348694 
z"/>
<path fill="#516F73" opacity="1.000000" stroke="none" 
	d="
M479.321533,345.683105 
	C473.591827,342.425964 471.961365,337.369476 471.812347,331.598175 
	C471.716644,327.891632 471.794434,324.180573 472.436615,320.297607 
	C475.125305,328.213470 483.569427,331.769684 486.022400,339.691620 
	C487.496307,344.451630 488.493408,349.080383 487.273682,354.101837 
	C484.869873,351.029968 482.972748,347.785217 479.321533,345.683105 
z"/>
<path fill="#516F73" opacity="1.000000" stroke="none" 
	d="
M500.721924,328.450073 
	C504.443207,321.554626 508.053650,319.035645 515.909424,318.004761 
	C516.890442,321.090942 514.572510,322.816528 513.073303,324.812836 
	C512.583252,325.465424 511.946777,326.155548 511.222229,326.462097 
	C502.612946,330.104034 498.939575,337.627777 495.910767,345.695435 
	C495.701996,346.251556 495.168182,346.685669 494.679199,347.312866 
	C489.846741,333.588837 489.773041,333.352142 496.904053,325.805237 
	C499.189789,325.348785 498.685852,328.472168 500.721924,328.450073 
z"/>
<path fill="#516F73" opacity="1.000000" stroke="none" 
	d="
M450.208557,156.194519 
	C453.515778,157.389404 456.418549,158.448456 459.431519,159.547699 
	C452.455231,168.781036 439.073090,169.452774 429.450714,161.189560 
	C435.420898,155.968262 442.316223,154.892197 450.208557,156.194519 
z"/>
<path fill="#516F73" opacity="1.000000" stroke="none" 
	d="
M318.053375,182.556229 
	C315.438446,181.271530 313.514648,179.794403 311.840027,177.593658 
	C313.869629,175.266129 316.237152,175.826523 318.405640,176.137482 
	C328.279510,177.553391 337.805603,178.082748 346.454285,171.312576 
	C349.619049,168.835220 353.969330,168.271637 357.986633,172.486481 
	C344.591827,177.080978 332.987946,185.414230 318.053375,182.556229 
z"/>
<path fill="#516F73" opacity="1.000000" stroke="none" 
	d="
M237.004059,285.891174 
	C234.781265,283.226013 233.720337,280.544403 233.592621,277.393372 
	C233.492859,274.931671 233.410965,272.139557 230.461044,271.163452 
	C227.808746,270.285889 226.105759,272.139557 224.495850,273.865723 
	C223.687302,274.732697 222.932480,275.623566 221.558395,275.182434 
	C221.305649,268.934143 223.240631,266.804749 230.892212,264.943542 
	C230.720245,261.852234 227.268951,259.704102 228.494812,255.156464 
	C232.292786,261.128082 233.677765,267.223969 236.168381,272.789551 
	C237.048538,274.756439 237.499039,276.915070 238.372528,278.885620 
	C241.036758,284.895935 246.615646,287.644745 253.087112,286.280701 
	C254.331467,286.018402 255.531158,285.100403 256.887573,285.938843 
	C253.640747,292.927429 245.554276,293.004974 237.004059,285.891174 
z"/>
<path fill="#516F73" opacity="1.000000" stroke="none" 
	d="
M535.877808,295.965820 
	C528.648254,291.143463 522.871460,285.405975 518.949890,277.954193 
	C517.979065,276.109375 516.451965,274.441956 516.579834,272.087585 
	C531.483826,276.597137 538.380798,283.707977 539.445557,298.684052 
	C537.510376,298.957977 537.207275,297.035095 535.877808,295.965820 
z"/>
<path fill="#516F73" opacity="1.000000" stroke="none" 
	d="
M253.362549,312.868622 
	C249.480637,308.551300 245.620697,305.058258 239.227081,306.290802 
	C233.504044,307.394073 230.142273,310.925842 228.898331,318.296661 
	C225.235291,315.160004 225.233734,311.272461 226.041122,307.399170 
	C226.761612,303.942719 228.985580,301.676666 232.565903,300.625854 
	C239.034210,298.727417 245.159607,300.077209 250.877533,302.839569 
	C254.978592,304.820770 254.674515,308.922363 253.362549,312.868622 
z"/>
<path fill="#516F73" opacity="1.000000" stroke="none" 
	d="
M487.313263,379.192993 
	C486.745148,382.972839 486.534943,386.460846 484.031250,389.486938 
	C477.661133,382.386169 473.919952,374.190704 471.139435,365.472931 
	C479.369324,363.775879 487.501007,370.465210 487.313263,379.192993 
z"/>
<path fill="#516F73" opacity="1.000000" stroke="none" 
	d="
M503.001434,226.387329 
	C511.719055,223.631317 521.771423,230.361511 524.974121,240.630020 
	C515.280334,241.912689 508.281677,236.592255 501.488495,230.934326 
	C499.173920,229.006546 500.322693,227.511398 503.001434,226.387329 
z"/>
<path fill="#516F73" opacity="1.000000" stroke="none" 
	d="
M280.377228,210.375290 
	C273.504913,215.948608 269.481934,223.168320 265.745880,232.129242 
	C264.791260,217.694534 286.555328,192.525986 301.052124,191.109497 
	C293.301697,197.573318 287.971405,204.861328 280.377228,210.375290 
z"/>
<path fill="#516F73" opacity="1.000000" stroke="none" 
	d="
M215.668686,242.877563 
	C217.134628,243.267365 218.348419,243.361847 219.231934,244.667496 
	C216.785538,250.726257 212.195129,254.734360 206.316177,257.536469 
	C204.183868,258.552795 202.881821,257.716370 201.706711,256.014282 
	C198.551956,251.444748 200.512436,245.582932 205.974930,243.385971 
	C209.016556,242.162659 212.148712,242.257751 215.668686,242.877563 
z"/>
<path fill="#516F73" opacity="1.000000" stroke="none" 
	d="
M477.821472,315.745056 
	C476.311401,310.158997 476.317169,310.109924 479.401886,300.938904 
	C487.584015,305.847473 489.969696,315.278534 486.141541,329.557373 
	C483.183197,324.711853 480.562836,320.419922 477.821472,315.745056 
z"/>
<path fill="#516F73" opacity="1.000000" stroke="none" 
	d="
M368.683044,209.622772 
	C370.677429,203.933273 372.402130,198.540466 374.433197,193.265625 
	C376.117676,188.890793 378.475769,184.940979 383.355804,183.147263 
	C384.719788,193.936371 376.467651,210.510437 367.547607,215.087738 
	C366.651306,213.118912 368.118774,211.637329 368.683044,209.622772 
z"/>
<path fill="#516F73" opacity="1.000000" stroke="none" 
	d="
M224.883606,507.219513 
	C218.432465,507.205048 214.701248,505.315887 207.812927,498.820068 
	C212.695816,492.539734 229.486374,496.911835 234.158859,504.981384 
	C231.528381,507.001831 228.258987,506.508575 224.883606,507.219513 
z"/>
<path fill="#516F73" opacity="1.000000" stroke="none" 
	d="
M486.063080,195.805038 
	C493.230042,196.335953 497.964935,200.196808 502.358459,205.022736 
	C494.417664,209.293762 482.244904,206.858322 476.111755,199.789062 
	C479.321198,198.349548 482.189056,196.435913 486.063080,195.805038 
z"/>
<path fill="#516F73" opacity="1.000000" stroke="none" 
	d="
M452.098511,233.442230 
	C451.783936,232.329254 451.629120,231.142044 452.788971,231.361771 
	C460.955048,232.908676 469.611084,243.322372 470.372589,252.326294 
	C464.729767,253.932632 457.096985,249.032425 456.238403,243.352570 
	C455.707275,239.839035 453.707092,236.884598 452.098511,233.442230 
z"/>
<path fill="#516F73" opacity="1.000000" stroke="none" 
	d="
M161.172607,242.985977 
	C162.379486,252.154694 161.288666,260.448425 155.867859,267.793396 
	C155.309509,268.549927 155.119904,269.696381 153.877136,269.768097 
	C149.586884,260.358154 151.529922,248.935593 158.543457,242.014069 
	C159.842239,240.732300 160.720047,240.460815 161.172607,242.985977 
z"/>
<path fill="#516F73" opacity="1.000000" stroke="none" 
	d="
M166.896851,238.608124 
	C161.388290,229.090195 162.888153,220.382507 169.170822,210.624573 
	C170.765915,220.602783 176.431274,228.980576 170.366135,238.179657 
	C169.398407,239.647415 168.809341,241.552856 166.896851,238.608124 
z"/>
<path fill="#516F73" opacity="1.000000" stroke="none" 
	d="
M308.040283,328.674713 
	C306.307068,324.941101 305.364441,321.524597 307.795441,317.188293 
	C310.571564,322.830048 312.718719,328.514557 319.932465,328.739868 
	C326.347931,328.940308 331.075409,325.168854 336.592529,322.740570 
	C335.011108,328.526581 330.715637,331.457062 325.346649,333.276611 
	C316.968872,336.115814 313.174561,335.165070 308.040283,328.674713 
z"/>
<path fill="#516F73" opacity="1.000000" stroke="none" 
	d="
M369.245544,127.257080 
	C365.198212,127.033127 364.608093,125.643234 367.370117,123.186668 
	C370.182098,120.685707 373.642914,119.206055 377.286163,119.054970 
	C382.294891,118.847237 387.431396,118.137932 392.923523,119.892944 
	C386.353058,127.650375 378.760254,129.890396 369.245544,127.257080 
z"/>
<path fill="#516F73" opacity="1.000000" stroke="none" 
	d="
M459.158020,171.824646 
	C465.787750,169.978897 470.621735,172.972717 475.703247,176.045288 
	C467.594452,183.704575 459.317505,183.847946 451.082214,176.645599 
	C452.884460,173.823776 455.914124,172.994583 459.158020,171.824646 
z"/>
<path fill="#516F73" opacity="1.000000" stroke="none" 
	d="
M455.713409,433.716248 
	C452.427795,435.736908 450.202545,438.417969 447.792450,441.034790 
	C443.693176,429.748596 451.691467,419.017151 463.563110,420.387573 
	C462.010162,425.435516 459.450348,429.701263 455.713409,433.716248 
z"/>
<path fill="#516F73" opacity="1.000000" stroke="none" 
	d="
M316.912598,223.959015 
	C317.942596,223.600418 318.678680,223.422684 319.555573,223.210968 
	C319.668030,226.058853 317.793854,227.460953 316.638702,229.156616 
	C311.555267,236.618652 308.482330,244.362534 312.377228,253.399384 
	C312.970795,254.776581 313.454620,256.449371 311.342712,257.067322 
	C309.556122,257.590057 307.973450,256.986786 307.144287,255.272186 
	C305.309387,251.477798 304.231445,247.510437 305.043976,243.241653 
	C306.529083,235.439529 310.105103,228.898087 316.912598,223.959015 
z"/>
<path fill="#516F73" opacity="1.000000" stroke="none" 
	d="
M511.079651,417.490143 
	C512.965210,425.183990 514.371277,432.576324 515.306274,440.380524 
	C504.178589,436.684052 500.667297,424.595978 507.744019,416.707214 
	C509.198944,415.085297 510.127594,415.199341 511.079651,417.490143 
z"/>
<path fill="#516F73" opacity="1.000000" stroke="none" 
	d="
M160.921936,330.403168 
	C159.821106,334.874512 157.857635,338.173920 153.696457,339.748199 
	C150.940765,340.790741 149.878052,343.781097 147.528641,345.380798 
	C144.729248,336.626648 148.494766,331.449188 160.113647,322.414551 
	C162.016937,324.790985 160.769409,327.495850 160.921936,330.403168 
z"/>
<path fill="#516F73" opacity="1.000000" stroke="none" 
	d="
M333.997223,134.502289 
	C338.041290,133.316589 341.747803,133.559631 346.359161,133.270889 
	C339.897156,143.500031 330.737610,145.614655 320.099487,146.434525 
	C322.784607,139.678116 328.564941,137.573471 333.997223,134.502289 
z"/>
<path fill="#516F73" opacity="1.000000" stroke="none" 
	d="
M426.486298,451.154541 
	C419.164337,444.901947 419.407959,436.570251 418.930267,428.312622 
	C427.926270,432.213806 432.691193,442.160797 429.898132,450.742554 
	C429.163940,452.998474 428.254730,453.554260 426.486298,451.154541 
z"/>
<path fill="#516F73" opacity="1.000000" stroke="none" 
	d="
M207.131073,401.219025 
	C202.364822,401.862854 201.323242,397.880890 199.987915,394.961090 
	C197.546127,389.621979 198.918930,384.381653 201.727692,379.364014 
	C207.484818,384.209412 209.535278,392.450775 207.131073,401.219025 
z"/>
<path fill="#516F73" opacity="1.000000" stroke="none" 
	d="
M352.989746,224.340027 
	C352.207733,219.331665 353.274994,215.029755 356.575592,211.588348 
	C359.406067,208.637115 358.625946,204.313385 360.845825,201.103683 
	C367.896057,209.961777 364.592773,219.874832 352.989746,224.340027 
z"/>
<path fill="#516F73" opacity="1.000000" stroke="none" 
	d="
M529.103943,315.086365 
	C537.716858,321.506989 540.283020,328.231537 537.619690,337.630554 
	C531.890076,331.604980 527.491028,325.287384 526.903931,316.929993 
	C526.813049,315.635651 527.038696,314.529053 529.103943,315.086365 
z"/>
<path fill="#516F73" opacity="1.000000" stroke="none" 
	d="
M445.342468,412.036438 
	C444.465057,409.890869 444.000610,407.927094 443.143463,406.153137 
	C440.296600,400.261261 442.239136,395.317383 445.722229,390.437561 
	C451.612213,396.233337 452.260071,405.918945 447.350769,411.813843 
	C446.879913,412.379272 446.274200,412.527496 445.342468,412.036438 
z"/>
<path fill="#516F73" opacity="1.000000" stroke="none" 
	d="
M281.957458,536.874512 
	C288.816986,528.980164 294.494659,527.555420 303.230194,531.434387 
	C302.259430,534.963989 298.952087,535.716187 296.305786,536.976929 
	C292.032654,539.012756 287.198425,538.055542 282.678040,538.962769 
	C281.635406,539.172058 281.534821,538.064636 281.957458,536.874512 
z"/>
<path fill="#516F73" opacity="1.000000" stroke="none" 
	d="
M236.057495,159.889374 
	C235.124680,160.773193 234.808044,161.918564 233.583649,161.873657 
	C231.788300,154.547134 238.598785,144.183456 247.796097,140.855087 
	C247.524933,149.563187 241.679596,154.466690 236.057495,159.889374 
z"/>
<path fill="#516F73" opacity="1.000000" stroke="none" 
	d="
M386.677246,204.603516 
	C385.696564,205.167282 384.996033,205.533066 384.151978,205.973801 
	C384.065247,198.097275 393.743866,188.925186 406.495422,185.262665 
	C400.558624,193.258453 393.752716,198.826828 386.677246,204.603516 
z"/>
<path fill="#516F73" opacity="1.000000" stroke="none" 
	d="
M397.722321,175.915466 
	C408.089569,174.971741 417.081146,176.944229 424.650024,184.391769 
	C422.323395,186.988022 420.043152,186.199478 418.540100,184.880447 
	C411.194153,178.434097 403.114685,177.931137 394.357544,181.218689 
	C393.659454,181.480774 392.777557,181.253220 391.561798,181.253220 
	C392.516235,178.042297 394.950348,177.069031 397.722321,175.915466 
z"/>
<path fill="#516F73" opacity="1.000000" stroke="none" 
	d="
M462.757263,443.681335 
	C467.748413,438.516663 473.947601,436.993195 480.525726,435.497742 
	C477.742859,443.935333 468.620667,449.123596 458.130066,448.552979 
	C458.906982,446.313202 461.225830,445.600311 462.757263,443.681335 
z"/>
<path fill="#516F73" opacity="1.000000" stroke="none" 
	d="
M128.109222,329.140381 
	C131.405869,333.744720 131.044357,338.282471 129.722809,343.111847 
	C122.600220,340.286804 119.765999,331.634644 121.269409,323.994843 
	C124.288750,324.563873 125.834923,327.063965 128.109222,329.140381 
z"/>
<path fill="#516F73" opacity="1.000000" stroke="none" 
	d="
M268.161346,208.340927 
	C273.721863,196.826553 280.783600,189.757156 289.129822,187.893417 
	C280.649323,196.321030 272.789795,205.233551 267.007202,215.869568 
	C266.085541,213.115250 267.212067,210.928085 268.161346,208.340927 
z"/>
<path fill="#516F73" opacity="1.000000" stroke="none" 
	d="
M477.832092,250.429443 
	C482.000519,246.917542 486.575775,247.562988 491.123108,249.194885 
	C493.408844,250.015152 495.546753,251.247437 497.820526,252.326157 
	C492.818604,258.477051 485.963623,257.839783 477.832092,250.429443 
z"/>
<path fill="#516F73" opacity="1.000000" stroke="none" 
	d="
M497.769104,276.065460 
	C493.333893,268.138519 494.423553,264.441040 502.188538,261.087067 
	C504.473938,267.065979 504.294189,272.854187 501.783234,278.624023 
	C499.867950,278.761505 499.074310,277.337585 497.769104,276.065460 
z"/>
<path fill="#516F73" opacity="1.000000" stroke="none" 
	d="
M348.494354,259.581543 
	C351.708252,257.637756 354.580811,255.849655 358.210297,253.590408 
	C357.362183,259.931244 353.686829,262.859955 349.238464,264.730133 
	C342.961395,267.369141 336.644470,266.974426 330.504578,263.478973 
	C336.662323,263.214600 342.653564,262.591339 348.494354,259.581543 
z"/>
<path fill="#516F73" opacity="1.000000" stroke="none" 
	d="
M457.851074,257.256775 
	C461.812927,263.220947 461.767700,264.814972 457.747437,269.198486 
	C452.028625,264.128357 450.295166,258.986969 451.154510,249.135925 
	C454.530518,250.928574 455.274261,254.652542 457.851074,257.256775 
z"/>
<path fill="#516F73" opacity="1.000000" stroke="none" 
	d="
M522.791748,436.180481 
	C517.017761,432.035370 515.914062,425.825897 519.263550,418.190491 
	C526.701843,422.565765 527.662415,427.036713 522.791748,436.180481 
z"/>
<path fill="#516F73" opacity="1.000000" stroke="none" 
	d="
M146.346970,413.669525 
	C142.182266,410.494720 140.176758,406.512207 139.220901,401.731964 
	C146.346268,401.554199 153.164612,409.262726 153.442078,417.557220 
	C150.495163,417.496674 148.876266,415.076843 146.346970,413.669525 
z"/>
<path fill="#516F73" opacity="1.000000" stroke="none" 
	d="
M530.458496,335.627563 
	C535.717102,340.299164 533.965637,346.481873 534.868713,352.084656 
	C529.347473,346.704559 525.375793,340.517853 523.657776,332.557587 
	C526.672241,331.982666 528.333679,333.919983 530.458496,335.627563 
z"/>
<path fill="#516F73" opacity="1.000000" stroke="none" 
	d="
M404.542969,495.614197 
	C403.421967,495.826538 402.585754,495.978058 401.810669,495.823395 
	C401.028320,495.667297 400.245300,495.280945 399.995605,494.356750 
	C406.412903,486.989868 416.037994,483.323883 421.769592,486.446075 
	C418.222198,489.754395 414.329956,492.079559 409.779449,493.222992 
	C407.978912,493.675476 406.223602,494.069916 404.542969,495.614197 
z"/>
<path fill="#516F73" opacity="1.000000" stroke="none" 
	d="
M323.559418,290.786621 
	C324.451904,290.044647 325.082855,289.505951 325.780487,289.075226 
	C325.988220,288.946960 326.382996,289.121643 326.691284,289.164276 
	C326.568970,291.045441 317.457367,313.427765 315.874237,315.740875 
	C313.221863,309.657440 316.317780,299.387909 323.559418,290.786621 
z"/>
<path fill="#516F73" opacity="1.000000" stroke="none" 
	d="
M406.415771,453.916199 
	C406.875885,452.283539 407.252716,451.050232 408.513885,450.391174 
	C414.819153,456.095367 415.672516,460.955750 411.404602,470.645111 
	C409.567291,464.556183 404.370850,460.748718 406.415771,453.916199 
z"/>
<path fill="#516F73" opacity="1.000000" stroke="none" 
	d="
M347.298340,222.162476 
	C347.373688,227.259781 344.620361,230.423889 341.271790,233.459320 
	C341.334076,225.602951 340.114441,217.781647 342.059784,209.984070 
	C342.683563,214.545486 346.669495,217.439896 347.298340,222.162476 
z"/>
<path fill="#516F73" opacity="1.000000" stroke="none" 
	d="
M225.557983,292.362640 
	C228.161469,293.841949 230.763702,292.712646 233.493286,293.197784 
	C232.742554,296.754608 230.127686,297.768219 227.627945,297.724609 
	C223.429443,297.651306 220.658035,294.851440 218.773834,291.292297 
	C216.638535,287.258881 217.355408,282.192963 220.942657,277.875824 
	C221.391464,283.294037 219.869446,288.958344 225.557983,292.362640 
z"/>
<path fill="#516F73" opacity="1.000000" stroke="none" 
	d="
M247.704590,133.499725 
	C245.444199,137.723724 242.022934,139.831619 237.932312,141.278671 
	C237.304886,134.594345 241.728333,128.677383 249.904922,125.244545 
	C250.481796,128.295471 248.562149,130.596863 247.704590,133.499725 
z"/>
<path fill="#516F73" opacity="1.000000" stroke="none" 
	d="
M322.901245,274.972168 
	C325.966980,276.448334 329.019501,277.417664 329.721558,281.408295 
	C321.065948,276.946747 311.571869,277.403076 302.340851,276.140991 
	C309.068024,273.055023 315.751343,272.644409 322.901245,274.972168 
z"/>
<path fill="#516F73" opacity="1.000000" stroke="none" 
	d="
M323.042328,197.043762 
	C319.308655,200.488510 316.987091,204.631363 314.038055,209.051086 
	C312.930725,201.002579 324.111023,187.040833 335.069885,186.950363 
	C332.015503,191.801346 326.751038,193.292236 323.042328,197.043762 
z"/>
<path fill="#516F73" opacity="1.000000" stroke="none" 
	d="
M315.953796,245.293732 
	C317.775757,240.659042 320.496887,237.290207 324.743500,235.107910 
	C323.098206,242.648605 320.465454,249.671982 315.383667,256.720734 
	C313.726746,252.177048 314.966858,248.930771 315.953796,245.293732 
z"/>
<path fill="#516F73" opacity="1.000000" stroke="none" 
	d="
M358.414276,188.578583 
	C352.309906,192.559509 345.797699,192.717010 339.056793,192.384689 
	C347.545349,188.530533 357.559723,187.624802 363.486572,178.984833 
	C364.344086,183.537582 361.275391,185.811935 358.414276,188.578583 
z"/>
<path fill="#516F73" opacity="1.000000" stroke="none" 
	d="
M273.659424,321.627777 
	C274.605530,321.846436 275.200745,322.037567 276.383881,322.417450 
	C270.753174,325.643127 265.934235,324.258240 261.381927,321.656006 
	C254.782394,317.883484 255.550720,311.291168 255.554001,304.886993 
	C257.292572,315.057495 263.361572,320.418427 273.659424,321.627777 
z"/>
<path fill="#516F73" opacity="1.000000" stroke="none" 
	d="
M280.590790,230.490906 
	C281.720886,237.532974 276.767822,242.149872 275.240143,248.704056 
	C272.336029,242.284760 276.398254,228.165085 281.180481,225.859406 
	C281.976349,227.411072 280.907288,228.730301 280.590790,230.490906 
z"/>
<path fill="#516F73" opacity="1.000000" stroke="none" 
	d="
M509.244385,252.724365 
	C509.189331,249.406036 511.370148,250.539337 512.681702,250.826904 
	C517.281494,251.835419 521.281494,258.370148 520.470947,264.196075 
	C515.680359,261.214508 512.159851,257.534210 509.244385,252.724365 
z"/>
<path fill="#516F73" opacity="1.000000" stroke="none" 
	d="
M358.086365,120.753174 
	C356.324524,120.604668 356.377502,119.685913 356.713898,118.632774 
	C358.251526,113.818542 362.681915,110.626175 368.323364,110.267418 
	C367.952148,115.703629 366.179291,117.568703 358.086365,120.753174 
z"/>
<path fill="#516F73" opacity="1.000000" stroke="none" 
	d="
M291.461792,345.895264 
	C293.917206,345.876312 294.017090,345.932831 293.100525,347.979950 
	C290.897064,352.901276 286.697723,356.265930 283.303009,360.793457 
	C281.091461,357.582306 282.407501,355.158295 284.210022,353.094604 
	C286.376770,350.613831 288.885101,348.431396 291.461792,345.895264 
z"/>
<path fill="#516F73" opacity="1.000000" stroke="none" 
	d="
M265.461548,132.145966 
	C268.330139,128.367722 270.931793,124.690292 276.983704,126.309563 
	C273.970123,131.321747 269.891785,133.692871 265.348846,135.368668 
	C264.033966,134.083939 264.850983,133.269882 265.461548,132.145966 
z"/>
<path fill="#516F73" opacity="1.000000" stroke="none" 
	d="
M377.943237,171.640045 
	C379.504303,172.244354 380.893890,172.498886 381.351379,174.680817 
	C374.837799,175.351868 369.046051,172.792252 361.606110,171.479507 
	C367.940063,168.521774 372.751556,170.186600 377.943237,171.640045 
z"/>
<path fill="#516F73" opacity="1.000000" stroke="none" 
	d="
M529.436401,298.472443 
	C531.760559,302.218201 535.921448,304.948425 533.484375,310.514404 
	C530.544250,307.056305 527.479980,304.194489 526.282410,299.965668 
	C526.006348,298.990906 525.680054,297.906952 526.684265,297.275391 
	C527.723206,296.621979 528.518738,297.430389 529.436401,298.472443 
z"/>
<path fill="#516F73" opacity="1.000000" stroke="none" 
	d="
M514.512329,414.296387 
	C510.668030,406.988861 510.668030,406.988861 514.564575,403.332733 
	C517.158813,406.422516 518.001343,409.888916 517.196228,413.756378 
	C516.888977,415.232025 516.240540,416.476654 514.512329,414.296387 
z"/>
<path fill="#516F73" opacity="1.000000" stroke="none" 
	d="
M250.357056,247.553192 
	C253.677155,251.188705 257.237885,254.261597 261.967133,256.436493 
	C255.968109,259.712677 250.207306,254.959854 250.357056,247.553192 
z"/>
<path fill="#516F73" opacity="1.000000" stroke="none" 
	d="
M467.383057,435.377380 
	C465.431122,435.149048 463.164001,434.727966 465.518951,432.927246 
	C469.084381,430.200989 473.341797,429.125610 478.872314,430.245392 
	C475.163666,433.556976 472.060913,435.712128 467.383057,435.377380 
z"/>
<path fill="#516F73" opacity="1.000000" stroke="none" 
	d="
M381.175079,199.702179 
	C382.499268,194.965820 383.184662,190.335938 386.952087,186.868073 
	C386.865234,191.927063 386.037018,196.916931 383.349579,201.272949 
	C382.132599,203.245590 381.367828,201.451965 381.175079,199.702179 
z"/>
<path fill="#516F73" opacity="1.000000" stroke="none" 
	d="
M354.595490,144.439331 
	C357.092407,138.578033 359.753540,137.155212 365.126556,139.102493 
	C361.967163,142.095016 360.162811,146.355225 354.595490,144.439331 
z"/>
<path fill="#516F73" opacity="1.000000" stroke="none" 
	d="
M271.179565,249.434204 
	C271.394073,251.029556 272.743408,252.078812 271.880768,253.493515 
	C265.900787,249.759705 265.279755,242.127838 270.926697,236.854813 
	C271.327393,241.146576 269.244934,245.204422 271.179565,249.434204 
z"/>
<path fill="#516F73" opacity="1.000000" stroke="none" 
	d="
M376.833069,164.744232 
	C379.562317,165.089859 381.839661,166.174942 381.194153,168.680374 
	C380.533295,171.245575 377.994873,170.116150 376.163391,169.659546 
	C374.295288,169.193817 372.212738,169.284286 370.431702,167.504395 
	C371.684967,164.982849 373.972412,164.697968 376.833069,164.744232 
z"/>
<path fill="#516F73" opacity="1.000000" stroke="none" 
	d="
M370.120422,529.332642 
	C367.853973,530.530579 366.134583,532.359375 363.558960,531.534607 
	C364.406708,526.395996 367.292816,524.491455 372.895447,525.311279 
	C373.320251,527.394592 371.499817,528.030945 370.120422,529.332642 
z"/>
<path fill="#516F73" opacity="1.000000" stroke="none" 
	d="
M444.409302,453.351166 
	C448.286652,450.842682 451.877136,448.550781 455.467590,446.258881 
	C455.766113,446.694672 456.064667,447.130493 456.363190,447.566284 
	C450.116699,451.876617 443.870178,456.186981 437.623688,460.497314 
	C437.376801,460.219482 437.129883,459.941620 436.882996,459.663788 
	C439.296143,457.631775 441.709259,455.599792 444.409302,453.351166 
z"/>
<path fill="#516F73" opacity="1.000000" stroke="none" 
	d="
M129.642731,368.068848 
	C127.631393,364.663086 127.094200,361.449585 128.359482,357.313385 
	C131.202438,360.251068 132.961456,363.111237 133.158936,366.624268 
	C133.286240,368.888641 132.722427,371.093323 129.642731,368.068848 
z"/>
<path fill="#516F73" opacity="1.000000" stroke="none" 
	d="
M438.420288,146.766083 
	C435.529724,149.174744 432.814423,151.344864 429.035339,149.430618 
	C430.643188,144.240799 434.773285,143.017715 438.420288,146.766083 
z"/>
<path fill="#516F73" opacity="1.000000" stroke="none" 
	d="
M239.379898,312.622742 
	C236.306580,314.680542 235.329041,318.064636 233.172424,320.898834 
	C230.923752,315.221649 234.402359,310.717865 240.766098,310.137390 
	C241.535049,311.455963 240.225159,311.763519 239.379898,312.622742 
z"/>
<path fill="#516F73" opacity="1.000000" stroke="none" 
	d="
M307.470001,189.121826 
	C311.236115,187.363281 314.123749,184.411957 318.415588,184.606018 
	C315.031616,188.672653 310.598694,190.818054 305.482117,192.042114 
	C304.838257,189.981384 306.425781,189.950363 307.470001,189.121826 
z"/>
<path fill="#516F73" opacity="1.000000" stroke="none" 
	d="
M345.593140,146.020294 
	C347.893677,146.503052 347.113281,147.608994 346.288849,148.434341 
	C344.282806,150.442505 341.929749,151.694611 338.540192,151.360641 
	C339.700043,147.740906 343.032043,147.594666 345.593140,146.020294 
z"/>
<path fill="#516F73" opacity="1.000000" stroke="none" 
	d="
M464.904053,465.748718 
	C467.075806,461.407623 470.292816,458.069519 474.032898,455.200714 
	C471.603210,459.267212 469.164703,463.313202 464.904053,465.748718 
z"/>
<path fill="#516F73" opacity="1.000000" stroke="none" 
	d="
M490.360565,434.250916 
	C487.759216,437.760559 485.887329,441.499390 482.398682,444.011505 
	C484.550598,440.082825 486.495972,436.024323 490.167145,433.138031 
	C490.175629,433.131409 490.418854,433.347351 490.467285,433.488556 
	C490.517273,433.634430 490.463043,433.815979 490.360565,434.250916 
z"/>
<path fill="#516F73" opacity="1.000000" stroke="none" 
	d="
M173.167511,290.035767 
	C172.935959,288.154297 173.613098,287.236969 174.970078,288.433044 
	C176.901596,290.135468 178.534561,292.192810 178.046585,295.641876 
	C175.574158,294.207306 174.353882,292.340515 173.167511,290.035767 
z"/>
<path fill="#516F73" opacity="1.000000" stroke="none" 
	d="
M463.373291,409.204254 
	C464.697083,407.924347 465.851868,407.062653 467.864105,407.633148 
	C467.942535,410.561127 466.219147,412.298523 463.642792,412.316254 
	C461.438965,412.331512 462.528687,410.590759 463.373291,409.204254 
z"/>
<path fill="#516F73" opacity="1.000000" stroke="none" 
	d="
M324.383270,208.691528 
	C323.457520,210.827759 322.345428,211.873917 320.629761,209.985641 
	C319.630188,208.885513 319.409760,207.352264 320.692902,206.495316 
	C322.670349,205.174683 324.125763,205.824341 324.383270,208.691528 
z"/>
<path fill="#516F73" opacity="1.000000" stroke="none" 
	d="
M425.620178,469.746094 
	C423.956116,470.598419 423.095398,472.313538 420.630310,472.135193 
	C422.953247,469.833344 423.728729,466.515472 427.433350,466.296265 
	C428.363708,468.276672 426.570374,468.623749 425.620178,469.746094 
z"/>
</svg>